<mxfile host="app.diagrams.net" modified="2023-04-13T09:00:48.767Z" agent="Mozilla/5.0 (Windows NT 10.0; Win64; x64) AppleWebKit/537.36 (KHTML, like Gecko) Chrome/111.0.0.0 Safari/537.36" version="21.1.7" etag="G2P6O-Kco6dgANLaXhJz" type="github">
  <diagram name="Lapa-1" id="A9qRTd7s7RJtBkJ1RY0a">
    <mxGraphModel>
      <root>
        <mxCell id="0" />
        <mxCell id="1" parent="0" />
      </root>
    </mxGraphModel>
  </diagram>
</mxfile>
